<mxfile host="65bd71144e" modified="2021-02-21T19:08:35.006Z" agent="5.0 (Macintosh; Intel Mac OS X 10_13_6) AppleWebKit/537.36 (KHTML, like Gecko) Code/1.53.2 Chrome/87.0.4280.141 Electron/11.2.1 Safari/537.36" version="14.2.4" etag="jy-oIb0W8Lhv1Peb71rU" type="embed">
    <diagram id="0_mria8_okKahex1QN7T" name="Page-1">
        <mxGraphModel dx="872" dy="738" grid="1" gridSize="10" guides="1" tooltips="1" connect="1" arrows="1" fold="1" page="1" pageScale="1" pageWidth="827" pageHeight="1169" math="0" shadow="0">
            <root>
                <mxCell id="0"/>
                <mxCell id="1" parent="0"/>
                <mxCell id="3" value="LOGO" style="whiteSpace=wrap;html=1;fillColor=#f0a30a;strokeColor=#BD7000;fontColor=#ffffff;" vertex="1" parent="1">
                    <mxGeometry width="80" height="80" as="geometry"/>
                </mxCell>
                <mxCell id="4" value="&amp;nbsp; &amp;nbsp; &amp;nbsp; &amp;nbsp; &amp;nbsp; FRANCE&amp;nbsp; &amp;nbsp; &amp;nbsp; &amp;nbsp; &amp;nbsp; BELGIQUE&amp;nbsp; &amp;nbsp; &amp;nbsp; &amp;nbsp; &amp;nbsp; ANGLETERRE&amp;nbsp; &amp;nbsp; &amp;nbsp; &amp;nbsp; &amp;nbsp; ALLEMAGNE" style="whiteSpace=wrap;html=1;align=center;fillColor=#f0a30a;strokeColor=#BD7000;fontColor=#ffffff;" vertex="1" parent="1">
                    <mxGeometry x="80" width="600" height="80" as="geometry"/>
                </mxCell>
                <mxCell id="5" value="RECHERCHE" style="whiteSpace=wrap;html=1;fillColor=#f0a30a;strokeColor=#BD7000;fontColor=#ffffff;" vertex="1" parent="1">
                    <mxGeometry x="680" width="140" height="80" as="geometry"/>
                </mxCell>
                <mxCell id="6" value="&lt;span style=&quot;text-align: left&quot;&gt;&lt;br&gt;&lt;br&gt;&lt;br&gt;&lt;br&gt;&lt;br&gt;&lt;br&gt;&lt;br&gt;titre&lt;/span&gt;&lt;br style=&quot;text-align: left&quot;&gt;&lt;span style=&quot;text-align: left&quot;&gt;description&lt;/span&gt;&lt;br style=&quot;text-align: left&quot;&gt;&lt;span style=&quot;text-align: left&quot;&gt;volume&lt;/span&gt;&lt;br style=&quot;text-align: left&quot;&gt;&lt;span style=&quot;text-align: left&quot;&gt;degré&lt;br&gt;brasserie&lt;br&gt;pays&lt;br&gt;goût&lt;br&gt;&lt;br&gt;&lt;/span&gt;" style="whiteSpace=wrap;html=1;align=center;strokeColor=#666666;fillColor=#f5f5f5;fontColor=#333333;" vertex="1" parent="1">
                    <mxGeometry x="80" y="120" width="160" height="320" as="geometry"/>
                </mxCell>
                <mxCell id="7" value="&lt;br style=&quot;text-align: left&quot;&gt;&lt;span style=&quot;text-align: left&quot;&gt;&lt;br&gt;&lt;br&gt;&lt;br&gt;&lt;/span&gt;&lt;span style=&quot;text-align: left&quot;&gt;&lt;br&gt;&lt;br&gt;titre&lt;/span&gt;&lt;br style=&quot;text-align: left&quot;&gt;&lt;span style=&quot;text-align: left&quot;&gt;description&lt;/span&gt;&lt;br style=&quot;text-align: left&quot;&gt;&lt;span style=&quot;text-align: left&quot;&gt;volume&lt;/span&gt;&lt;br style=&quot;text-align: left&quot;&gt;&lt;span style=&quot;text-align: left&quot;&gt;degré&lt;br&gt;brasserie&lt;br&gt;pays&lt;br&gt;goût&lt;/span&gt;&lt;span style=&quot;text-align: left&quot;&gt;&lt;br&gt;&lt;/span&gt;" style="whiteSpace=wrap;html=1;fillColor=#f5f5f5;strokeColor=#666666;fontColor=#333333;" vertex="1" parent="1">
                    <mxGeometry x="320" y="120" width="160" height="320" as="geometry"/>
                </mxCell>
                <mxCell id="8" value="&lt;span style=&quot;text-align: left&quot;&gt;&lt;br&gt;&lt;br&gt;&lt;br&gt;&lt;br&gt;&lt;br&gt;&lt;br&gt;titre&lt;/span&gt;&lt;br style=&quot;text-align: left&quot;&gt;&lt;span style=&quot;text-align: left&quot;&gt;description&lt;/span&gt;&lt;br style=&quot;text-align: left&quot;&gt;&lt;span style=&quot;text-align: left&quot;&gt;volume&lt;/span&gt;&lt;br style=&quot;text-align: left&quot;&gt;&lt;span style=&quot;text-align: left&quot;&gt;degré&lt;br&gt;brasserie&lt;br&gt;pays&lt;br&gt;goût&lt;/span&gt;" style="whiteSpace=wrap;html=1;fillColor=#f5f5f5;strokeColor=#666666;fontColor=#333333;" vertex="1" parent="1">
                    <mxGeometry x="560" y="120" width="160" height="320" as="geometry"/>
                </mxCell>
                <mxCell id="9" value="PHOTO" style="whiteSpace=wrap;html=1;fillColor=#6d8764;strokeColor=#3A5431;fontColor=#ffffff;" vertex="1" parent="1">
                    <mxGeometry x="99" y="130" width="120" height="120" as="geometry"/>
                </mxCell>
                <mxCell id="10" value="PHOTO" style="whiteSpace=wrap;html=1;fillColor=#6d8764;strokeColor=#3A5431;fontColor=#ffffff;" vertex="1" parent="1">
                    <mxGeometry x="339" y="130" width="120" height="120" as="geometry"/>
                </mxCell>
                <mxCell id="11" value="PHOTO" style="whiteSpace=wrap;html=1;fillColor=#6d8764;strokeColor=#3A5431;fontColor=#ffffff;" vertex="1" parent="1">
                    <mxGeometry x="579" y="130" width="120" height="120" as="geometry"/>
                </mxCell>
                <mxCell id="12" value="&lt;font style=&quot;font-size: 14px&quot;&gt;Services clients&amp;nbsp; &amp;nbsp; &amp;nbsp; &amp;nbsp; &amp;nbsp; A porops&amp;nbsp; &amp;nbsp; &amp;nbsp; &amp;nbsp; &amp;nbsp; Conditions&amp;nbsp; &amp;nbsp; &amp;nbsp; &amp;nbsp; &amp;nbsp; Suivez-nous&amp;nbsp; &amp;nbsp; &amp;nbsp; &amp;nbsp; &amp;nbsp;&amp;nbsp;&lt;/font&gt;" style="whiteSpace=wrap;html=1;align=center;fillColor=#f0a30a;strokeColor=#BD7000;fontColor=#ffffff;" vertex="1" parent="1">
                    <mxGeometry y="520" width="820" height="110" as="geometry"/>
                </mxCell>
            </root>
        </mxGraphModel>
    </diagram>
</mxfile>